<?xml version="1.0" encoding="UTF-8" standalone="no"?>
<!DOCTYPE svg PUBLIC "-//W3C//DTD SVG 1.1//EN" "http://www.w3.org/Graphics/SVG/1.1/DTD/svg11.dtd">
<svg width="100%" height="100%" viewBox="0 0 279 80" version="1.1" xmlns="http://www.w3.org/2000/svg" xmlns:xlink="http://www.w3.org/1999/xlink" xml:space="preserve" style="fill-rule:evenodd;clip-rule:evenodd;stroke-linejoin:round;stroke-miterlimit:1.41421;">
    <g transform="matrix(0.5,0,0,0.5,-0.0281353,0)">
        <g id="g3" transform="matrix(1.8331,0,0,1.8331,-152.598,-122.658)">
            <path id="path5" d="M207.1,108.2C207.1,108.6 207.1,109 207,109.3C207,109.6 206.9,109.9 206.8,110.1C206.7,110.3 206.6,110.4 206.5,110.5C206.4,110.6 206.3,110.6 206.1,110.6L192.8,110.6C192.3,110.6 191.9,110.5 191.6,110.2C191.3,109.9 191.1,109.4 191.1,108.8L191.1,82.5C191.1,82.4 191.1,82.2 191.2,82.1C191.3,82 191.5,81.9 191.7,81.8C191.9,81.7 192.2,81.7 192.6,81.6C193,81.6 193.5,81.5 194,81.5C194.6,81.5 195.1,81.5 195.4,81.6C195.8,81.6 196.1,81.7 196.3,81.8C196.5,81.9 196.7,82 196.8,82.1C196.9,82.2 196.9,82.4 196.9,82.5L196.9,105.8L206,105.8C206.1,105.8 206.3,105.8 206.4,105.9C206.5,106 206.6,106.1 206.7,106.3C206.8,106.5 206.8,106.7 206.9,107C207.1,107.4 207.1,107.8 207.1,108.2Z" style="fill:rgb(0,174,240);fill-rule:nonzero;"/>
            <path id="path7" d="M228.7,108.4C228.7,108.8 228.7,109.2 228.6,109.5C228.6,109.8 228.5,110 228.4,110.2C228.3,110.4 228.2,110.5 228.1,110.6C228,110.7 227.9,110.7 227.7,110.7L213.1,110.7C212.6,110.7 212.2,110.6 211.9,110.3C211.6,110 211.4,109.5 211.4,108.9L211.4,83.6C211.4,82.9 211.6,82.5 211.9,82.2C212.2,81.9 212.7,81.8 213.1,81.8L227.6,81.8C227.7,81.8 227.9,81.8 228,81.9C228.1,82 228.2,82.1 228.3,82.3C228.4,82.5 228.4,82.7 228.5,83C228.5,83.3 228.6,83.7 228.6,84.1C228.6,84.5 228.6,84.9 228.5,85.2C228.5,85.5 228.4,85.7 228.3,85.9C228.2,86.1 228.1,86.2 228,86.3C227.9,86.4 227.8,86.4 227.6,86.4L217.2,86.4L217.2,93.5L226,93.5C226.1,93.5 226.3,93.5 226.4,93.6C226.5,93.7 226.6,93.8 226.7,94C226.8,94.2 226.8,94.4 226.9,94.7C226.9,95 227,95.3 227,95.8C227,96.2 227,96.6 226.9,96.9C226.8,97.2 226.8,97.4 226.7,97.6C226.6,97.8 226.5,97.9 226.4,98C226.3,98.1 226.2,98.1 226,98.1L217.2,98.1L217.2,106.3L227.6,106.3C227.7,106.3 227.9,106.3 228,106.4C228.1,106.5 228.2,106.6 228.3,106.8C228.4,107 228.4,107.2 228.5,107.5C228.7,107.6 228.7,108 228.7,108.4Z" style="fill:rgb(0,174,240);fill-rule:nonzero;"/>
            <path id="path9" d="M258.1,108.5C258.3,109 258.4,109.5 258.4,109.8C258.4,110.1 258.4,110.3 258.2,110.5C258,110.7 257.7,110.8 257.3,110.8C256.9,110.8 256.3,110.9 255.6,110.9C254.8,110.9 254.2,110.9 253.8,110.9C253.4,110.9 253,110.8 252.8,110.8C252.6,110.7 252.4,110.6 252.3,110.5C252.2,110.4 252.1,110.2 252.1,110L250.1,104.2L239.2,104.2L237.4,109.9C237.3,110.1 237.3,110.3 237.2,110.4C237.1,110.5 236.9,110.7 236.7,110.7C236.5,110.7 236.2,110.8 235.8,110.9C235.4,110.9 234.9,110.9 234.2,110.9C233.5,110.9 233,110.9 232.6,110.8C232.2,110.7 231.9,110.6 231.8,110.5C231.6,110.3 231.6,110.1 231.6,109.8C231.6,109.5 231.8,109.1 231.9,108.5L240.8,82.8C240.9,82.5 241,82.3 241.1,82.2C241.2,82 241.4,81.9 241.7,81.8C242,81.7 242.3,81.7 242.8,81.6C243.3,81.5 243.9,81.6 244.6,81.6C245.5,81.6 246.2,81.6 246.7,81.6C247.2,81.6 247.6,81.7 247.9,81.8C248.2,81.9 248.4,82 248.5,82.2C248.6,82.4 248.7,82.6 248.8,82.9L258.1,108.5ZM244.8,87.2L240.7,99.5L248.9,99.5L244.8,87.2Z" style="fill:rgb(0,174,240);fill-rule:nonzero;"/>
            <path id="path11" d="M284.6,109.9C284.6,110.1 284.6,110.2 284.5,110.3C284.4,110.4 284.3,110.5 284.1,110.6C283.9,110.7 283.5,110.7 283.1,110.8L279.8,110.8C279.4,110.8 279.1,110.7 278.9,110.6C278.7,110.5 278.5,110.4 278.4,110.3C278.3,110.2 278.2,110 278.2,109.8L275.6,103.3C275.3,102.6 275,101.9 274.7,101.4C274.4,100.8 274.1,100.4 273.7,100C273.3,99.6 272.9,99.3 272.4,99.1C271.9,98.9 271.4,98.8 270.7,98.8L269,98.8L269,109.8C269,109.9 269,110.1 268.9,110.2C268.8,110.3 268.6,110.4 268.4,110.5C268.2,110.6 267.9,110.6 267.5,110.7C267.1,110.8 266.6,110.8 266.1,110.8C265.5,110.8 265.1,110.8 264.7,110.7C264.3,110.6 264,110.6 263.8,110.5C263.6,110.4 263.4,110.3 263.3,110.2C263.2,110.1 263.2,109.9 263.2,109.8L263.2,83.6C263.2,82.9 263.4,82.5 263.7,82.2C264,81.9 264.5,81.8 264.9,81.8L274.3,81.8C274.8,81.8 275.2,81.9 275.6,81.9C276.8,82.1 277.8,82.3 278.7,82.8C279.6,83.2 280.4,83.7 281.1,84.4C281.7,85.1 282.2,85.8 282.6,86.7C283,87.6 283.1,88.6 283.1,89.8C283.1,90.8 283,91.7 282.7,92.5C282.5,93.3 282.1,94 281.6,94.6C281.1,95.2 280.5,95.8 279.8,96.2C279.1,96.7 278.3,97 277.4,97.3C277.8,97.5 278.2,97.8 278.6,98.1C279,98.4 279.3,98.8 279.7,99.2C280.1,99.6 280.4,100.1 280.7,100.7C281,101.2 281.3,101.9 281.6,102.5L284,108.2C284.2,108.8 284.4,109.2 284.4,109.4C284.6,109.6 284.6,109.8 284.6,109.9ZM277,90.3C277,89.3 276.8,88.5 276.4,87.9C276,87.2 275.3,86.8 274.3,86.5C274,86.4 273.7,86.4 273.3,86.3C272.9,86.2 272.4,86.2 271.7,86.2L269,86.2L269,94.4L272,94.4C272.8,94.4 273.6,94.3 274.2,94.1C274.8,93.9 275.4,93.6 275.8,93.2C276.2,92.8 276.5,92.4 276.7,91.9C276.9,91.4 277,90.9 277,90.3Z" style="fill:rgb(0,174,240);fill-rule:nonzero;"/>
            <path id="path13" d="M312.709,108.6C312.709,108.9 312.609,109.2 312.509,109.5C312.409,109.8 312.209,110 312.009,110.2C311.809,110.4 311.609,110.5 311.309,110.6C311.009,110.7 310.709,110.7 310.509,110.7L308.009,110.7C307.509,110.7 307.009,110.6 306.609,110.5C306.209,110.4 305.909,110.2 305.509,109.9C305.109,109.6 304.909,109.2 304.609,108.8C304.309,108.3 304.009,107.7 303.609,107L296.409,93.4C296.009,92.6 295.609,91.7 295.109,90.8C294.709,89.9 294.309,89 293.909,88.1C294.009,89.2 294.009,90.2 294.009,91.3L294.009,109.8C294.009,109.9 294.009,110.1 293.909,110.2C293.809,110.3 293.709,110.4 293.509,110.5C293.309,110.6 293.009,110.6 292.709,110.7C292.409,110.7 291.909,110.8 291.409,110.8C290.909,110.8 290.409,110.8 290.109,110.7C289.809,110.6 289.509,110.6 289.309,110.5C289.109,110.4 289.009,110.3 288.909,110.2C288.809,110.1 288.809,109.9 288.809,109.8L288.809,83.8C288.809,83.1 289.009,82.6 289.409,82.2C289.809,81.8 290.309,81.7 290.909,81.7L294.109,81.7C294.709,81.7 295.109,81.7 295.509,81.8C295.909,81.9 296.209,82.1 296.509,82.3C296.809,82.5 297.109,82.8 297.409,83.2C297.709,83.6 297.909,84.1 298.209,84.7L303.809,95.3C304.109,95.9 304.509,96.6 304.809,97.2C305.109,97.8 305.409,98.4 305.709,99.1C306.009,99.7 306.309,100.3 306.609,100.9C306.909,101.5 307.209,102.1 307.409,102.7C307.409,101.7 307.309,100.6 307.309,99.4C307.309,98.2 307.309,97.2 307.309,96.2L307.309,82.6C307.309,82.5 307.309,82.3 307.409,82.2C307.509,82.1 307.609,82 307.809,81.9C308.009,81.8 308.309,81.7 308.609,81.7C308.909,81.7 309.409,81.6 309.909,81.6C310.409,81.6 310.809,81.6 311.209,81.7C311.509,81.7 311.809,81.8 312.009,81.9C312.209,82 312.309,82.1 312.409,82.2C312.509,82.3 312.509,82.5 312.509,82.6L312.509,108.6L312.709,108.6Z" style="fill:rgb(0,174,240);fill-rule:nonzero;"/>
            <path id="path15" d="M325.296,109.9C325.296,110 325.296,110.2 325.196,110.3C325.096,110.4 324.896,110.5 324.696,110.6C324.496,110.7 324.196,110.7 323.796,110.8C323.396,110.8 322.896,110.9 322.396,110.9C321.796,110.9 321.396,110.9 320.996,110.8C320.596,110.8 320.296,110.7 320.096,110.6C319.896,110.5 319.696,110.4 319.596,110.3C319.496,110.2 319.496,110 319.496,109.9L319.496,82.5C319.496,82.4 319.496,82.2 319.596,82.1C319.696,82 319.896,81.9 320.096,81.8C320.296,81.7 320.596,81.7 320.996,81.6C321.396,81.6 321.796,81.5 322.396,81.5C322.996,81.5 323.496,81.5 323.796,81.6C324.196,81.6 324.496,81.7 324.696,81.8C324.896,81.9 325.096,82 325.196,82.1C325.296,82.2 325.296,82.4 325.296,82.5L325.296,109.9Z" style="fill:rgb(0,174,240);fill-rule:nonzero;"/>
            <path id="path17" d="M356.575,108.409C356.575,108.709 356.475,109.009 356.375,109.309C356.275,109.609 356.075,109.809 355.875,110.009C355.675,110.209 355.475,110.309 355.175,110.409C354.875,110.509 354.575,110.509 354.375,110.509L351.875,110.509C351.375,110.509 350.875,110.409 350.475,110.309C350.075,110.209 349.775,110.009 349.375,109.709C349.075,109.409 348.775,109.009 348.475,108.609C348.175,108.109 347.875,107.509 347.475,106.809L340.275,93.209C339.875,92.409 339.475,91.509 338.975,90.609C338.575,89.709 338.175,88.809 337.775,87.909C337.875,89.009 337.875,90.009 337.875,91.109L337.875,109.609C337.875,109.709 337.875,109.909 337.775,110.009C337.675,110.109 337.575,110.209 337.375,110.309C337.175,110.409 336.875,110.409 336.575,110.509C336.275,110.609 335.775,110.609 335.275,110.609C334.775,110.609 334.275,110.609 333.975,110.509C333.675,110.409 333.375,110.409 333.175,110.309C332.975,110.209 332.875,110.109 332.775,110.009C332.675,109.909 332.675,109.709 332.675,109.609L332.675,83.609C332.675,82.909 332.875,82.409 333.275,82.009C333.675,81.609 334.175,81.509 334.775,81.509L337.975,81.509C338.575,81.509 338.975,81.509 339.375,81.609C339.775,81.709 340.075,81.909 340.375,82.109C340.675,82.309 340.975,82.609 341.275,83.009C341.575,83.409 341.775,83.909 342.075,84.509L347.675,95.109C347.975,95.709 348.375,96.409 348.675,97.009C348.975,97.609 349.275,98.209 349.575,98.909C349.875,99.509 350.175,100.109 350.475,100.709C350.775,101.309 351.075,101.909 351.275,102.509C351.275,101.509 351.175,100.409 351.175,99.209C351.175,98.109 351.175,97.009 351.175,96.009L351.175,82.409C351.175,82.309 351.175,82.109 351.275,82.009C351.375,81.909 351.475,81.809 351.675,81.709C351.875,81.609 352.175,81.509 352.475,81.509C352.775,81.509 353.275,81.409 353.775,81.409C354.275,81.409 354.675,81.409 355.075,81.509C355.475,81.609 355.675,81.609 355.875,81.709C356.075,81.809 356.175,81.909 356.275,82.009C356.375,82.109 356.375,82.309 356.375,82.409L356.375,108.409L356.575,108.409Z" style="fill:rgb(0,174,240);fill-rule:nonzero;"/>
            <path id="path19" d="M386.697,86.009C386.697,86.409 386.697,86.809 386.597,87.109C386.597,87.409 386.497,87.709 386.397,87.909C386.297,88.109 386.297,88.209 386.197,88.309C386.097,88.409 385.997,88.409 385.897,88.409C385.697,88.409 385.397,88.309 384.997,88.009C384.597,87.709 383.997,87.409 383.297,87.109C382.597,86.809 381.697,86.509 380.697,86.209C379.697,85.909 378.597,85.809 377.197,85.809C375.797,85.809 374.497,86.009 373.397,86.509C372.297,87.009 371.297,87.709 370.497,88.609C369.697,89.509 369.097,90.609 368.597,91.809C368.197,93.009 367.897,94.409 367.897,95.909C367.897,97.609 368.097,99.009 368.597,100.309C369.097,101.609 369.697,102.609 370.397,103.509C371.197,104.409 372.097,105.009 373.297,105.409C374.397,105.809 375.597,106.109 376.997,106.109C377.697,106.109 378.297,106.009 378.897,105.909C379.497,105.809 380.097,105.509 380.697,105.209L380.697,98.509L375.197,98.509C374.897,98.509 374.697,98.309 374.597,98.009C374.497,97.709 374.397,97.109 374.397,96.309C374.397,95.909 374.397,95.509 374.497,95.209C374.497,94.909 374.597,94.709 374.697,94.509C374.797,94.309 374.897,94.209 374.997,94.109C375.097,94.009 375.197,94.009 375.397,94.009L385.197,94.009C385.397,94.009 385.697,94.009 385.797,94.109C385.897,94.209 386.197,94.309 386.297,94.509C386.397,94.709 386.497,94.909 386.597,95.109C386.697,95.309 386.697,95.609 386.697,95.909L386.697,107.409C386.697,107.809 386.597,108.209 386.497,108.609C386.297,108.909 385.997,109.209 385.497,109.409C384.997,109.609 384.397,109.809 383.697,110.009C382.997,110.209 382.197,110.409 381.497,110.509C380.797,110.609 379.997,110.809 379.197,110.809C378.397,110.909 377.597,110.909 376.797,110.909C374.497,110.909 372.397,110.609 370.597,109.909C368.797,109.209 367.197,108.309 365.897,107.009C364.597,105.709 363.697,104.209 362.997,102.409C362.297,100.609 361.997,98.509 361.997,96.209C361.997,93.809 362.397,91.709 363.097,89.809C363.797,87.909 364.797,86.309 366.097,85.009C367.397,83.709 368.997,82.709 370.897,82.009C372.797,81.309 374.797,80.909 377.097,80.909C378.397,80.909 379.497,81.009 380.497,81.209C381.497,81.409 382.397,81.609 383.197,81.809C383.997,82.009 384.597,82.309 385.097,82.609C385.597,82.909 385.997,83.109 386.197,83.309C386.397,83.509 386.497,83.809 386.597,84.209C386.597,84.709 386.697,85.309 386.697,86.009Z" style="fill:rgb(0,174,240);fill-rule:nonzero;"/>
        </g>
        <g id="g21" transform="matrix(1.84487,0,0,1.84487,-153.555,-151.6)">
            <path id="path23" d="M207.595,156.4C207.595,156.8 207.595,157.2 207.495,157.5C207.495,157.8 207.395,158 207.295,158.2C207.195,158.4 207.095,158.5 206.995,158.6C206.895,158.7 206.795,158.7 206.595,158.7L191.995,158.7C191.495,158.7 191.095,158.6 190.795,158.3C190.495,158 190.295,157.5 190.295,156.9L190.295,131.6C190.295,130.9 190.495,130.5 190.795,130.2C191.095,129.9 191.595,129.8 191.995,129.8L206.495,129.8C206.595,129.8 206.795,129.8 206.895,129.9C206.995,130 207.095,130.1 207.195,130.3C207.295,130.5 207.295,130.7 207.395,131C207.395,131.3 207.495,131.7 207.495,132.1C207.495,132.5 207.495,132.9 207.395,133.2C207.395,133.5 207.295,133.7 207.195,133.9C207.095,134.1 206.995,134.2 206.895,134.3C206.795,134.4 206.695,134.4 206.495,134.4L196.295,134.4L196.295,141.5L205.095,141.5C205.195,141.5 205.395,141.5 205.495,141.6C205.595,141.7 205.695,141.8 205.795,142C205.895,142.2 205.895,142.4 205.995,142.7C205.995,143 206.095,143.3 206.095,143.8C206.095,144.2 206.095,144.6 205.995,144.9C205.895,145.2 205.895,145.4 205.795,145.6C205.695,145.8 205.595,145.9 205.495,146C205.395,146.1 205.295,146.1 205.095,146.1L196.295,146.1L196.295,154.3L206.695,154.3C206.795,154.3 206.995,154.3 207.095,154.4C207.195,154.5 207.295,154.6 207.395,154.8C207.495,155 207.495,155.2 207.595,155.5L207.595,156.4Z" style="fill:rgb(0,174,240);fill-rule:nonzero;"/>
            <path id="path25" d="M241.131,161.771C241.131,162.271 241.131,162.771 241.031,163.071C240.931,163.371 240.931,163.671 240.831,163.871C240.731,164.071 240.631,164.171 240.531,164.171C240.431,164.271 240.331,164.271 240.231,164.271C239.731,164.271 239.131,164.171 238.331,163.871C237.531,163.571 236.631,163.171 235.731,162.671C234.831,162.171 233.831,161.571 232.931,160.871C232.031,160.171 231.031,159.271 230.231,158.371C229.531,158.671 228.731,158.971 227.731,159.171C226.731,159.371 225.631,159.471 224.431,159.471C222.131,159.471 220.231,159.171 218.531,158.571C216.831,157.971 215.431,157.071 214.331,155.871C213.231,154.671 212.331,153.071 211.831,151.271C211.231,149.371 211.031,147.171 211.031,144.571C211.031,142.271 211.331,140.071 211.931,138.271C212.531,136.371 213.431,134.771 214.631,133.471C215.831,132.171 217.231,131.171 219.031,130.471C220.731,129.771 222.831,129.371 225.131,129.371C227.331,129.371 229.231,129.671 230.831,130.271C232.531,130.871 233.931,131.771 235.031,132.971C236.131,134.171 237.031,135.671 237.631,137.571C238.231,139.371 238.531,141.571 238.531,144.071C238.531,145.371 238.431,146.571 238.231,147.771C238.031,148.871 237.831,149.971 237.431,150.971C237.131,151.971 236.731,152.871 236.231,153.671C235.731,154.471 235.231,155.171 234.631,155.771C235.531,156.571 236.331,157.171 237.131,157.571C237.831,157.971 238.431,158.271 238.931,158.471C239.431,158.671 239.831,158.871 240.131,158.971C240.431,159.071 240.631,159.171 240.831,159.371C241.031,159.571 241.131,159.771 241.231,160.171C241.131,160.571 241.131,161.071 241.131,161.771ZM232.231,144.371C232.231,142.871 232.131,141.471 231.831,140.271C231.631,139.071 231.231,137.971 230.631,137.071C230.031,136.171 229.331,135.471 228.331,134.971C227.331,134.471 226.131,134.271 224.731,134.271C223.331,134.271 222.031,134.571 221.131,135.071C220.131,135.571 219.331,136.371 218.731,137.271C218.131,138.171 217.731,139.271 217.431,140.471C217.231,141.671 217.031,142.971 217.031,144.271C217.031,145.871 217.131,147.271 217.431,148.571C217.631,149.871 218.031,150.971 218.631,151.771C219.231,152.671 219.931,153.371 220.931,153.871C221.931,154.371 223.131,154.571 224.531,154.571C225.931,154.571 227.231,154.271 228.131,153.771C229.131,153.271 229.931,152.471 230.531,151.571C231.131,150.671 231.531,149.571 231.831,148.371C232.131,147.171 232.231,145.771 232.231,144.371Z" style="fill:rgb(0,174,240);fill-rule:nonzero;"/>
            <path id="path27" d="M267.766,147.873C267.766,149.673 267.466,151.273 266.966,152.673C266.466,154.073 265.666,155.273 264.666,156.273C263.666,157.273 262.366,157.973 260.866,158.473C259.366,158.973 257.666,159.273 255.666,159.273C253.866,159.273 252.166,159.073 250.766,158.573C249.366,158.073 248.066,157.473 247.066,156.473C246.066,155.573 245.266,154.373 244.766,152.973C244.266,151.573 243.966,149.973 243.966,148.073L243.966,130.473C243.966,130.373 243.966,130.173 244.066,130.073C244.166,129.973 244.266,129.873 244.566,129.773C244.766,129.673 245.066,129.673 245.466,129.573C245.866,129.473 246.366,129.473 246.866,129.473C247.466,129.473 247.866,129.473 248.266,129.573C248.666,129.573 248.966,129.673 249.166,129.773C249.366,129.873 249.566,129.973 249.666,130.073C249.766,130.173 249.766,130.373 249.766,130.473L249.766,147.573C249.766,148.773 249.866,149.673 250.166,150.573C250.466,151.373 250.866,152.073 251.366,152.673C251.866,153.273 252.566,153.673 253.266,153.873C253.966,154.173 254.866,154.273 255.766,154.273C256.666,154.273 257.566,154.173 258.266,153.873C258.966,153.573 259.666,153.173 260.166,152.673C260.666,152.173 261.066,151.473 261.366,150.673C261.666,149.873 261.766,148.973 261.766,147.973L261.766,130.473C261.766,130.373 261.766,130.173 261.866,130.073C261.966,129.973 262.066,129.873 262.366,129.773C262.566,129.673 262.866,129.673 263.266,129.573C263.666,129.573 264.166,129.473 264.666,129.473C265.266,129.473 265.666,129.473 266.066,129.573C266.466,129.673 266.766,129.673 266.966,129.773C267.166,129.873 267.366,129.973 267.466,130.073C267.566,130.173 267.566,130.373 267.566,130.473L267.767,147.873L267.766,147.873Z" style="fill:rgb(0,174,240);fill-rule:nonzero;"/>
            <path id="path29" d="M297.091,156.405C297.291,156.905 297.391,157.405 297.391,157.705C297.391,158.005 297.391,158.205 297.191,158.405C296.991,158.605 296.691,158.705 296.291,158.705C295.891,158.705 295.291,158.805 294.591,158.805C293.791,158.805 293.191,158.805 292.791,158.805C292.391,158.805 291.991,158.705 291.791,158.705C291.591,158.605 291.391,158.505 291.291,158.405C291.191,158.305 291.091,158.105 291.091,157.905L289.191,152.105L278.291,152.105L276.491,157.805C276.391,158.005 276.391,158.205 276.291,158.305C276.191,158.405 275.991,158.605 275.791,158.605C275.591,158.705 275.291,158.705 274.891,158.805C274.491,158.805 273.991,158.805 273.291,158.805C272.591,158.805 272.091,158.805 271.691,158.705C271.291,158.605 270.991,158.505 270.891,158.405C270.791,158.305 270.691,158.005 270.691,157.705C270.691,157.405 270.891,157.005 270.991,156.405L279.891,130.705C279.991,130.405 280.091,130.205 280.191,130.105C280.291,129.905 280.491,129.805 280.791,129.705C281.091,129.605 281.391,129.605 281.891,129.505L285.791,129.505C286.291,129.505 286.691,129.605 286.991,129.705C287.291,129.805 287.491,129.905 287.591,130.105C287.691,130.305 287.791,130.505 287.891,130.805L297.091,156.405ZM283.791,135.105L279.691,147.405L287.891,147.405L283.791,135.105Z" style="fill:rgb(0,174,240);fill-rule:nonzero;"/>
            <path id="path31" d="M317.711,156.2C317.711,156.6 317.711,157 317.611,157.3C317.611,157.6 317.511,157.9 317.411,158.1C317.311,158.3 317.211,158.4 317.111,158.5C317.011,158.6 316.911,158.6 316.711,158.6L303.411,158.6C302.911,158.6 302.511,158.5 302.211,158.2C301.911,157.9 301.711,157.4 301.711,156.8L301.711,130.5C301.711,130.4 301.711,130.2 301.811,130.1C301.911,130 302.111,129.9 302.311,129.8C302.511,129.7 302.811,129.7 303.211,129.6C303.611,129.5 304.111,129.5 304.611,129.5C305.211,129.5 305.711,129.5 306.011,129.6C306.411,129.6 306.711,129.7 306.911,129.8C307.111,129.9 307.311,130 307.411,130.1C307.511,130.2 307.511,130.4 307.511,130.5L307.511,153.8L316.611,153.8C316.711,153.8 316.911,153.8 317.011,153.9C317.111,154 317.211,154.1 317.311,154.3C317.411,154.5 317.411,154.7 317.511,155C317.711,155.4 317.711,155.8 317.711,156.2Z" style="fill:rgb(0,174,240);fill-rule:nonzero;"/>
            <path id="path33" d="M327.268,157.9C327.268,158 327.268,158.2 327.168,158.3C327.068,158.4 326.868,158.5 326.668,158.6C326.468,158.7 326.168,158.7 325.768,158.8C325.368,158.8 324.868,158.9 324.368,158.9C323.768,158.9 323.368,158.9 322.968,158.8C322.568,158.7 322.268,158.7 322.068,158.6C321.868,158.5 321.668,158.4 321.568,158.3C321.468,158.2 321.468,158 321.468,157.9L321.468,130.5C321.468,130.4 321.468,130.2 321.568,130.1C321.668,130 321.868,129.9 322.068,129.8C322.268,129.7 322.568,129.7 322.968,129.6C323.368,129.5 323.768,129.5 324.368,129.5C324.968,129.5 325.468,129.5 325.768,129.6C326.168,129.6 326.468,129.7 326.668,129.8C326.868,129.9 327.068,130 327.168,130.1C327.268,130.2 327.268,130.4 327.268,130.5L327.268,157.9Z" style="fill:rgb(0,174,240);fill-rule:nonzero;"/>
            <path id="path35" d="M353.543,131.958C353.543,132.358 353.543,132.758 353.443,133.058C353.443,133.358 353.343,133.658 353.243,133.758C353.143,133.958 353.043,134.058 352.943,134.158C352.843,134.258 352.743,134.258 352.543,134.258L345.243,134.258L345.243,157.658C345.243,157.758 345.243,157.958 345.143,158.058C345.043,158.158 344.843,158.258 344.643,158.358C344.443,158.458 344.143,158.458 343.743,158.558C343.343,158.658 342.843,158.658 342.343,158.658C341.743,158.658 341.343,158.658 340.943,158.558C340.543,158.458 340.243,158.458 340.043,158.358C339.843,158.258 339.643,158.158 339.543,158.058C339.443,157.958 339.443,157.758 339.443,157.658L339.443,134.258L332.143,134.258C331.943,134.258 331.843,134.258 331.743,134.158C331.643,134.058 331.543,133.958 331.443,133.758C331.343,133.558 331.343,133.358 331.243,133.058C331.243,132.758 331.143,132.358 331.143,131.958C331.143,131.558 331.143,131.158 331.243,130.858C331.243,130.558 331.343,130.258 331.443,130.058C331.543,129.858 331.643,129.758 331.743,129.658C331.843,129.558 331.943,129.558 332.143,129.558L352.543,129.558C352.643,129.558 352.843,129.558 352.943,129.658C353.043,129.758 353.143,129.858 353.243,130.058C353.343,130.258 353.343,130.458 353.443,130.858C353.543,131.158 353.543,131.558 353.543,131.958Z" style="fill:rgb(0,174,240);fill-rule:nonzero;"/>
            <path id="path37" d="M368.83,147.754L368.83,157.954C368.83,158.054 368.83,158.254 368.73,158.354C368.63,158.454 368.43,158.554 368.23,158.654C368.03,158.754 367.73,158.754 367.33,158.854C366.93,158.954 366.43,158.954 365.93,158.954C365.33,158.954 364.83,158.954 364.53,158.854C364.13,158.854 363.83,158.754 363.63,158.654C363.43,158.554 363.23,158.454 363.13,158.354C363.03,158.254 363.03,158.054 363.03,157.954L363.03,147.754L355.13,131.954C354.83,131.354 354.63,130.954 354.63,130.654C354.53,130.354 354.63,130.154 354.73,129.954C354.93,129.754 355.23,129.654 355.73,129.654C356.23,129.654 356.83,129.554 357.63,129.554C358.33,129.554 358.83,129.554 359.23,129.554C359.63,129.554 359.93,129.654 360.23,129.754C360.43,129.854 360.63,129.954 360.73,130.054C360.83,130.154 360.93,130.354 361.03,130.554L364.23,137.654C364.53,138.354 364.83,139.054 365.13,139.854C365.43,140.654 365.73,141.454 366.03,142.254C366.33,141.454 366.63,140.654 366.93,139.854C367.23,139.054 367.53,138.354 367.83,137.654L371.03,130.554C371.13,130.354 371.23,130.154 371.33,129.954C371.43,129.754 371.63,129.654 371.83,129.654C372.03,129.554 372.33,129.554 372.73,129.454C373.13,129.454 373.63,129.454 374.23,129.454C375.13,129.454 375.73,129.454 376.23,129.554C376.73,129.654 377.03,129.654 377.23,129.854C377.43,130.054 377.43,130.254 377.33,130.554C377.23,130.854 377.03,131.254 376.83,131.854L368.83,147.754Z" style="fill:rgb(0,174,240);fill-rule:nonzero;"/>
        </g>
        <g id="g39" transform="matrix(1,0,0,1,-1,-0.5)">
            <path id="path6" d="M122.6,16.5C128.9,11.2 135.1,5.7 141.4,0.5C146.1,6 147.7,14 145.1,20.8C144,24.1 141.9,27 139.3,29.2C131,36.3 122.6,43.3 114.4,50.6C112.8,52.1 113.9,54.8 115.9,55.2C117.6,55.5 118.7,54 119.9,53.1C129.5,44.7 139.3,36.6 148.8,28.2C153,24.7 157.2,21.1 161.3,17.5C165.6,22.3 167.3,29.2 165.9,35.4C164.8,39.7 162.7,43.9 159.2,46.6C150,54.5 140.7,62.3 131.5,70.2C130.4,71.1 129.8,72.7 130.7,73.9C131.5,75.4 133.7,75.8 134.9,74.5C148.3,63 161.8,51.6 175.2,40.1C179,44.5 181,50.6 180,56.4C179.4,61.6 176.4,66.4 172.3,69.7C156.9,82.8 141.5,96 126.1,109.1C121.5,113.5 114.8,115.7 108.5,114.6C103.6,113.9 99,111.3 95.8,107.6C84.7,94.6 73.5,81.3 62.2,68.2C63.4,66.9 64.8,65.8 66.2,64.7C85,48.6 103.8,32.6 122.6,16.5Z" style="fill:rgb(6,227,229);fill-rule:nonzero;"/>
            <path id="path8" d="M13.8,50.6C24.3,45.7 37.8,48.4 45.5,57.1C62.3,76.8 79,96.4 95.8,116C99.6,120.2 105.2,122.8 110.9,122.8C116.2,122.9 121.4,120.9 125.3,117.3C141.5,103.4 157.8,89.7 173.9,75.8C177.7,80.4 179.7,86.5 178.7,92.4C177.9,97.5 175.2,102.2 171.2,105.3C152.7,121 134.3,136.8 115.8,152.5C110.9,156.6 104.6,158.7 98.3,158.9C90.2,158.8 82.1,155.2 76.9,148.9C53.4,121.4 29.9,93.8 6.3,66.2C4.5,64.2 2.9,62 1,60.1C5.1,56.8 8.8,52.8 13.8,50.6Z" style="fill:rgb(0,174,240);fill-rule:nonzero;"/>
        </g>
    </g>
</svg>
