<svg width="456" height="305" viewBox="0 0 456 305" fill="none" xmlns="http://www.w3.org/2000/svg">
<path d="M252.66 107.23C251.07 127.3 255.09 149.09 269.33 163.32C275.5 169.5 283.23 173.89 291.15 177.56C340.48 200.37 408.59 200.76 443.52 154.42C462.88 128.74 454.69 89.29 441.62 61.85C430.35 38.2 410.87 18.28 386.83 7.88004C353.37 -6.58996 322.76 -0.729959 296.23 22.15C271.51 43.47 255.25 74.62 252.67 107.23H252.66Z" fill="#FFCB00"/>
<path d="M385.53 143.59C383.86 143.59 382.16 143.49 380.42 143.3C375.32 142.73 371 140.63 367.79 137.23C360.54 141.14 352.02 144.01 343.99 143.11C337.34 142.36 331.9 138.95 328.19 133.24C322.18 138.04 316.05 141.49 310.41 142.68C301.83 144.49 295.16 140.84 291.63 132.42C289.02 126.2 287.75 118.8 287.75 109.81C287.75 72.51 318.1 42.16 355.4 42.16C384.26 42.16 406.98 57.23 417.75 83.51C424.27 99.43 422.52 118.24 413.4 130.33C406.87 138.98 397.1 143.59 385.52 143.59H385.53ZM373.98 133.47C375.91 135.06 378.32 136.02 381.19 136.34C392.61 137.61 401.81 134.07 407.82 126.11C415.5 115.92 416.89 99.87 411.28 86.16C401.64 62.64 381.28 49.15 355.41 49.15C321.97 49.15 294.76 76.36 294.76 109.8C294.76 117.73 295.88 124.43 298.09 129.7C300.33 135.04 303.69 136.93 308.97 135.82C313.91 134.78 319.52 131.38 325.1 126.63C319.93 110.57 325.8 86.42 333 73.31C337.69 64.78 345.22 60.38 352.19 62.1C358.52 63.67 362.55 69.76 362.7 78C362.93 91.04 349.31 113.71 333.53 128.57C333.54 128.59 333.56 128.62 333.57 128.64C336.19 133.14 339.85 135.59 344.76 136.14C350.85 136.82 357.76 134.55 363.9 131.33C363.88 131.3 363.87 131.26 363.85 131.23C359.99 122.43 361.27 110.48 366.89 102.82C370.67 97.67 375.81 95.17 381 95.95C385.43 96.62 389.13 99.75 390.65 104.13C392.88 110.56 390.35 118.32 383.7 125.42C381.62 127.64 378.19 130.6 373.96 133.47H373.98ZM379.19 102.82C376.89 102.82 374.51 104.29 372.55 106.97C368.6 112.36 367.52 121.31 369.99 127.72C373.66 125.26 376.7 122.68 378.61 120.64C383.35 115.58 385.39 110.26 384.06 106.43C383.39 104.49 381.86 103.16 379.98 102.88C379.72 102.84 379.46 102.82 379.19 102.82ZM349.2 68.75C346.33 68.75 342.39 70.77 339.14 76.69C335.29 83.7 332.09 93.84 330.78 103.15C329.82 110.02 329.87 116.19 330.9 121.24C344.22 107.74 355.89 88.44 355.71 78.14C355.62 73.22 353.63 69.68 350.52 68.91C350.11 68.81 349.67 68.76 349.2 68.76V68.75Z" fill="black"/>
<path d="M8.78 137.25H1.45C1 137.25 0.630005 137.62 0.630005 138.07V199.33C0.630005 199.55 0.720005 199.76 0.870005 199.91L4.75 203.79C4.91 203.94 5.11 204.03 5.33 204.03H8.78C9.23 204.03 9.60001 203.66 9.60001 203.21V138.06C9.60001 137.61 9.23 137.24 8.78 137.24V137.25Z" fill="black"/>
<path d="M60.38 184.49C60.55 183.33 60.63 182.09 60.63 180.7C60.63 168.73 54.19 156.66 39.81 156.66C26.79 156.66 17.33 166.77 17.33 180.7C17.33 194.63 27.12 204.74 40.1 204.74C47.92 204.74 54.49 201.19 58.6 194.76C58.72 194.57 58.76 194.34 58.69 194.11C58.62 193.88 58.46 193.68 58.25 193.58L51.56 190.35C51.2 190.18 50.77 190.3 50.53 190.64C48.12 194.05 44.52 195.85 40.1 195.85C33.67 195.85 28.92 191.96 27.4 185.44L27.34 185.2H59.55C59.96 185.2 60.32 184.9 60.38 184.5V184.49ZM50.97 176.33C50.74 176.62 50.39 176.79 50.01 176.79H28.69C28.31 176.79 27.94 176.61 27.71 176.3C27.49 176 27.41 175.63 27.51 175.28C29.24 169.09 33.72 165.55 39.8 165.55C47.44 165.55 50.22 170.87 51.2 175.34C51.28 175.69 51.2 176.05 50.96 176.33H50.97Z" fill="black"/>
<path d="M95.63 204.05H102.78C103.23 204.05 103.6 203.68 103.6 203.23V173.66C103.6 162.63 97.49 156.56 86.4 156.56C79.42 156.56 70.35 159.92 67.77 169.37C67.72 169.57 67.75 169.79 67.86 169.97C67.98 170.17 68.18 170.31 68.41 170.35L74.9 171.71C75.31 171.79 75.69 171.55 75.84 171.15C77.31 167.04 80.82 164.67 85.71 164.47C85.95 164.45 86.2 164.44 86.46 164.44C88.79 164.44 91.63 165.19 93.28 166.96C94.32 168.08 94.74 169.49 94.51 171.04C94.1 173.84 90.55 174.65 86.06 175.67C84.96 175.92 83.82 176.18 82.64 176.48C73.65 178.84 66.68 181.4 65.58 190.87C65.16 194.58 66.36 198.19 68.87 200.77C71.81 203.78 76.29 205.19 81.49 204.73C88.73 204.05 92.72 200.56 94.45 198.54L94.8 198.14V203.22C94.8 203.67 95.17 204.04 95.62 204.04L95.63 204.05ZM82.8 196.72C82.43 196.75 82.02 196.77 81.59 196.77C79.06 196.77 75.8 196.12 75.35 192.84C75.08 191.11 75.38 186.84 84.1 184.61C90.28 183.07 94.51 181.89 94.55 181.87L94.8 181.8V184.11C94.8 191.6 87.7 196.32 82.79 196.72H82.8Z" fill="black"/>
<path d="M137.62 156.8C136.49 156.63 135.62 156.55 134.81 156.55C130.22 156.55 126.08 158.32 122.83 161.67L122.61 161.89L121.08 157.86C120.96 157.54 120.65 157.33 120.31 157.33H114.42C113.97 157.33 113.6 157.7 113.6 158.15V203.22C113.6 203.67 113.97 204.04 114.42 204.04H121.67C122.12 204.04 122.49 203.67 122.49 203.22V177.95C122.49 170.06 126.34 165.54 133.05 165.54H137.35C137.79 165.54 138.16 165.18 138.17 164.73L138.31 157.63C138.31 157.22 138.02 156.86 137.62 156.8Z" fill="black"/>
<path d="M174.91 204.05H182.16C182.61 204.05 182.98 203.68 182.98 203.23V177.66C182.98 164.31 176.71 156.65 165.78 156.65C161.19 156.65 157.05 158.42 153.8 161.77L153.58 162L152.07 157.88C151.95 157.56 151.64 157.34 151.3 157.34H145.39C144.94 157.34 144.57 157.71 144.57 158.16V203.23C144.57 203.68 144.94 204.05 145.39 204.05H152.64C153.09 204.05 153.46 203.68 153.46 203.23V177.96C153.46 170.07 157.31 165.55 164.01 165.55C170.71 165.55 174.08 170.29 174.08 178.55V203.24C174.08 203.69 174.45 204.06 174.9 204.06L174.91 204.05Z" fill="black"/>
<path d="M280.38 226.04C286.84 226.04 292.27 224.01 296.09 220.17C300.58 215.65 302.86 208.75 302.86 199.65V158.16C302.86 157.71 302.49 157.34 302.04 157.34H296.24C295.9 157.34 295.59 157.56 295.47 157.88L293.75 162.59L293.53 162.36C290 158.63 285.08 156.65 279.31 156.65C266.54 156.65 257.61 166.54 257.61 180.69C257.61 194.84 266.53 204.73 279.31 204.73C285.08 204.73 290 202.76 293.53 199.02L293.87 198.66V200.52C293.87 210.77 288.59 217.13 280.09 217.13C275.53 217.13 271.12 214.98 268.57 211.52C268.39 211.28 268.14 211.16 267.88 211.16C267.73 211.16 267.58 211.2 267.45 211.29L261.34 215.26C261.15 215.38 261.01 215.59 260.97 215.81C260.93 216.03 260.97 216.24 261.1 216.42C265.29 222.34 272.69 226.02 280.39 226.02L280.38 226.04ZM280.48 195.84C271.43 195.84 267.38 188.23 267.38 180.69C267.38 171.49 272.52 165.54 280.48 165.54C288.44 165.54 293.48 171.49 293.48 180.69C293.48 188.23 289.46 195.84 280.48 195.84Z" fill="black"/>
<path d="M242.92 204.05H250.17C250.62 204.05 250.99 203.68 250.99 203.23V177.66C250.99 164.31 244.72 156.65 233.79 156.65C229.2 156.65 225.06 158.42 221.81 161.77L221.59 162L220.08 157.88C219.96 157.56 219.65 157.34 219.31 157.34H213.4C212.95 157.34 212.58 157.71 212.58 158.16V203.23C212.58 203.68 212.95 204.05 213.4 204.05H220.65C221.1 204.05 221.47 203.68 221.47 203.23V177.96C221.47 170.07 225.32 165.55 232.02 165.55C238.72 165.55 242.09 170.29 242.09 178.55V203.24C242.09 203.69 242.46 204.06 242.91 204.06L242.92 204.05Z" fill="black"/>
<path d="M202 140.11H194.57C194.117 140.11 193.75 140.477 193.75 140.93V148.34C193.75 148.793 194.117 149.16 194.57 149.16H202C202.453 149.16 202.82 148.793 202.82 148.34V140.93C202.82 140.477 202.453 140.11 202 140.11Z" fill="black"/>
<path d="M198.1 203.81C198.25 203.96 198.47 204.05 198.68 204.05H202.02C202.47 204.05 202.84 203.68 202.84 203.23V158.16C202.84 157.71 202.47 157.34 202.02 157.34H194.77C194.32 157.34 193.95 157.71 193.95 158.16V199.33C193.95 199.55 194.04 199.76 194.19 199.91L198.09 203.81H198.1Z" fill="black"/>
<path d="M86.22 303.38H93.57C94.02 303.38 94.39 303.01 94.39 302.56V236.18C94.39 235.73 94.02 235.36 93.57 235.36H87.75C87.4 235.36 87.09 235.58 86.98 235.9L85.28 240.61L85.06 240.38C81.47 236.58 76.55 234.58 70.84 234.58C58.07 234.58 49.15 244.51 49.15 258.72C49.15 272.93 58.07 282.76 70.84 282.76C76.62 282.76 81.53 280.79 85.06 277.06L85.4 276.7V302.56C85.4 303.01 85.77 303.38 86.22 303.38ZM71.91 273.87C64.01 273.87 58.91 267.92 58.91 258.72C58.91 251.18 62.93 243.57 71.91 243.57C80.89 243.57 85.01 251.18 85.01 258.72C85.01 267.92 79.87 273.87 71.91 273.87Z" fill="black"/>
<path d="M139.57 282.08C140.02 282.08 140.39 281.71 140.39 281.26V236.19C140.39 235.74 140.02 235.37 139.57 235.37H132.32C131.87 235.37 131.5 235.74 131.5 236.19V261.46C131.5 269.35 127.65 273.87 120.95 273.87C114.25 273.87 110.88 269.13 110.88 260.87V236.18C110.88 235.73 110.51 235.36 110.06 235.36H102.81C102.36 235.36 101.99 235.73 101.99 236.18V261.75C101.99 275.1 108.26 282.76 119.19 282.76C123.78 282.76 127.92 280.99 131.17 277.64L131.39 277.41L132.9 281.53C133.02 281.85 133.33 282.07 133.67 282.07H139.58L139.57 282.08Z" fill="black"/>
<path d="M43.05 262.51C43.22 261.35 43.3 260.11 43.3 258.71C43.3 246.74 36.86 234.67 22.48 234.67C9.46 234.67 0 244.78 0 258.71C0 272.64 9.79 282.75 22.77 282.75C30.59 282.75 37.16 279.2 41.27 272.77C41.39 272.58 41.43 272.35 41.36 272.12C41.29 271.89 41.13 271.7 40.92 271.59L34.23 268.36C33.87 268.19 33.44 268.31 33.2 268.65C30.79 272.06 27.19 273.86 22.77 273.86C16.34 273.86 11.59 269.97 10.07 263.45L10.01 263.21H42.22C42.63 263.21 42.99 262.91 43.05 262.51ZM33.64 254.35C33.41 254.64 33.06 254.81 32.68 254.81H11.36C10.98 254.81 10.61 254.63 10.38 254.32C10.15 254.02 10.08 253.65 10.18 253.3C11.91 247.12 16.39 243.57 22.48 243.57C30.12 243.57 32.9 248.89 33.88 253.36C33.96 253.71 33.88 254.07 33.64 254.35Z" fill="black"/>
<path d="M177 282.08H184.15C184.6 282.08 184.97 281.71 184.97 281.26V251.69C184.97 240.66 178.86 234.59 167.77 234.59C160.79 234.59 151.72 237.95 149.14 247.4C149.09 247.6 149.12 247.82 149.23 248C149.35 248.2 149.55 248.34 149.78 248.39L156.27 249.75C156.67 249.83 157.06 249.6 157.21 249.19C158.68 245.08 162.19 242.71 167.08 242.51C167.32 242.49 167.57 242.48 167.83 242.48C170.16 242.48 173 243.23 174.65 245C175.69 246.12 176.11 247.53 175.88 249.08C175.47 251.88 171.92 252.69 167.44 253.7C166.34 253.95 165.2 254.21 164.01 254.51C155.02 256.87 148.05 259.43 146.95 268.9C146.53 272.61 147.73 276.22 150.24 278.8C153.18 281.81 157.67 283.22 162.86 282.76C170.11 282.08 174.09 278.59 175.82 276.57L176.17 276.17V281.26C176.17 281.71 176.54 282.08 176.99 282.08H177ZM164.17 274.75C163.8 274.78 163.39 274.8 162.96 274.8C160.43 274.8 157.17 274.15 156.72 270.87C156.45 269.14 156.75 264.87 165.47 262.64C171.65 261.09 175.88 259.92 175.92 259.91L176.17 259.84V262.15C176.17 269.64 169.07 274.36 164.16 274.76L164.17 274.75Z" fill="black"/>
<path d="M201.91 215.28H194.58C194.13 215.28 193.76 215.65 193.76 216.1V277.36C193.76 277.58 193.85 277.79 194 277.94L197.88 281.82C198.03 281.97 198.25 282.06 198.46 282.06H201.91C202.36 282.06 202.73 281.69 202.73 281.24V216.09C202.73 215.64 202.36 215.27 201.91 215.27V215.28Z" fill="black"/>
<path d="M220.85 218.14H213.42C212.967 218.14 212.6 218.507 212.6 218.96V226.37C212.6 226.823 212.967 227.19 213.42 227.19H220.85C221.303 227.19 221.67 226.823 221.67 226.37V218.96C221.67 218.507 221.303 218.14 220.85 218.14Z" fill="black"/>
<path d="M216.95 281.84C217.11 281.99 217.31 282.08 217.53 282.08H220.88C221.33 282.08 221.7 281.71 221.7 281.26V238.22C221.7 237.77 221.33 237.4 220.88 237.4H213.63C213.18 237.4 212.81 237.77 212.81 238.22V277.36C212.81 277.58 212.9 277.79 213.05 277.94L216.95 281.84Z" fill="black"/>
<path d="M256.47 274.21C256.31 274.05 256.11 273.96 255.88 273.96H249.44C248.79 273.96 248.21 273.86 247.74 273.66C245.54 272.81 244.69 270.87 244.69 266.74V246.63C244.69 245.96 245.23 245.42 245.9 245.42H253.53C253.98 245.42 254.35 245.05 254.35 244.6V238.23C254.35 237.78 253.98 237.41 253.53 237.41H245.9C245.23 237.41 244.69 236.87 244.69 236.2V228.42C244.69 227.97 244.32 227.6 243.87 227.6H236.62C236.17 227.6 235.8 227.97 235.8 228.42V236.2C235.8 236.87 235.26 237.41 234.59 237.41H230.27C229.82 237.41 229.45 237.78 229.45 238.23V244.6C229.45 245.05 229.82 245.42 230.27 245.42H234.59C235.26 245.42 235.8 245.96 235.8 246.63V267.13C235.8 275.7 238.38 280.34 244.17 282.19C245.32 282.55 246.59 282.73 247.94 282.73L248.14 282.75H255.87C256.1 282.75 256.31 282.66 256.46 282.5C256.61 282.34 256.69 282.14 256.69 281.92C256.64 279.81 256.69 276.55 256.71 274.79C256.71 274.57 256.63 274.36 256.48 274.21H256.47Z" fill="black"/>
<path d="M263.02 304.03H266.72C276.77 303.81 281.03 294.59 285.55 282.56L302.19 240.78C302.23 240.68 302.25 240.58 302.25 240.48V238.31C302.25 237.86 301.88 237.49 301.43 237.49H294.5C294.16 237.49 293.86 237.69 293.74 238L281.84 267.4C281.65 267.86 281.21 268.16 280.72 268.16C280.72 268.16 280.7 268.16 280.69 268.16C280.18 268.15 279.74 267.83 279.57 267.35L269.28 238.04C269.16 237.71 268.85 237.49 268.5 237.49H261.49C261.04 237.49 260.67 237.86 260.67 238.31V240.5C260.67 240.59 260.69 240.69 260.72 240.78L275.87 282.95L275.84 283.02C272.27 292.18 269.99 294.97 266.11 294.97H263.02C262.57 294.97 262.2 295.34 262.2 295.79V303.22C262.2 303.67 262.57 304.04 263.02 304.04V304.03Z" fill="black"/>
</svg>
