<svg width="24" height="24" viewBox="0 0 24 24" fill="none" xmlns="http://www.w3.org/2000/svg">
<path d="M23 22.2227L22.2227 23L17.6113 18.3887L16.5 21H14.6807L16.333 17.1113L12 12.7773L12.7773 12L23 22.2227ZM11 1C11.6666 1 12.2622 1.18762 12.7871 1.5625C13.3121 1.93748 13.6663 2.41672 13.8496 3H18C18.55 3 19.0204 3.19622 19.4121 3.58789C19.8038 3.97956 20 4.45 20 5V10H18V5H16V8H6V5H4V19H11V21H4C3.45 21 2.97956 20.8038 2.58789 20.4121C2.19622 20.0204 2 19.55 2 19V5C2 4.45 2.19622 3.97956 2.58789 3.58789C2.97956 3.19622 3.45 3 4 3H8.1748C8.35814 2.41667 8.71667 1.9375 9.25 1.5625C9.78333 1.1875 10.3667 1 11 1ZM22.333 14.8887H19.1113L18.5557 16.1943L17.2637 14.9023L15.583 13.2227H22.333V14.8887ZM11 3C10.7167 3 10.4788 3.09544 10.2871 3.28711C10.0954 3.47878 10 3.71667 10 4C10 4.28333 10.0954 4.52122 10.2871 4.71289C10.4788 4.90456 10.7167 5 11 5C11.2833 5 11.5212 4.90456 11.7129 4.71289C11.9046 4.52122 12 4.28333 12 4C12 3.71667 11.9046 3.47878 11.7129 3.28711C11.5212 3.09544 11.2833 3 11 3Z" fill="black"/>
</svg>
