<svg width="24" height="24" viewBox="0 0 24 24" fill="none" xmlns="http://www.w3.org/2000/svg">
<path d="M6.00522 12.0259L9.24282 15.2635C9.396 15.4167 9.47258 15.6116 9.47258 15.8484C9.47258 16.0851 9.396 16.28 9.24282 16.4332C9.08964 16.5864 8.89469 16.663 8.65796 16.663C8.42124 16.663 8.22628 16.5864 8.07311 16.4332L4.22977 12.5899C4.14621 12.5063 4.08703 12.4158 4.05222 12.3183C4.01741 12.2209 4 12.1164 4 12.005C4 11.8936 4.01741 11.7892 4.05222 11.6917C4.08703 11.5942 4.14621 11.5037 4.22977 11.4202L8.07311 7.57682C8.24021 7.40972 8.43864 7.32617 8.66841 7.32617C8.89817 7.32617 9.09661 7.40972 9.26371 7.57682C9.43081 7.74393 9.51436 7.94236 9.51436 8.17212C9.51436 8.40189 9.43081 8.60032 9.26371 8.76743L6.00522 12.0259ZM17.9948 11.9841L14.7572 8.74654C14.604 8.59336 14.5274 8.39841 14.5274 8.16168C14.5274 7.92495 14.604 7.73 14.7572 7.57682C14.9104 7.42365 15.1053 7.34706 15.342 7.34706C15.5788 7.34706 15.7737 7.42365 15.9269 7.57682L19.7702 11.4202C19.8538 11.5037 19.913 11.5942 19.9478 11.6917C19.9826 11.7892 20 11.8936 20 12.005C20 12.1164 19.9826 12.2209 19.9478 12.3183C19.913 12.4158 19.8538 12.5063 19.7702 12.5899L15.9269 16.4332C15.7598 16.6003 15.5648 16.6804 15.342 16.6734C15.1192 16.6665 14.9243 16.5794 14.7572 16.4123C14.5901 16.2452 14.5065 16.0468 14.5065 15.817C14.5065 15.5873 14.5901 15.3888 14.7572 15.2217L17.9948 11.9841Z" fill="black"/>
</svg>
