<svg width="24" height="24" viewBox="0 0 24 24" fill="none" xmlns="http://www.w3.org/2000/svg">
<path d="M9.33333 18.2222V16.4444H20V18.2222H9.33333ZM9.33333 12.8889V11.1111H20V12.8889H9.33333ZM9.33333 7.55555V5.77777H20V7.55555H9.33333ZM5.77778 19.1111C5.28889 19.1111 4.87037 18.937 4.52222 18.5889C4.17407 18.2407 4 17.8222 4 17.3333C4 16.8444 4.17407 16.4259 4.52222 16.0778C4.87037 15.7296 5.28889 15.5556 5.77778 15.5556C6.26667 15.5556 6.68519 15.7296 7.03333 16.0778C7.38148 16.4259 7.55556 16.8444 7.55556 17.3333C7.55556 17.8222 7.38148 18.2407 7.03333 18.5889C6.68519 18.937 6.26667 19.1111 5.77778 19.1111ZM5.77778 13.7778C5.28889 13.7778 4.87037 13.6037 4.52222 13.2556C4.17407 12.9074 4 12.4889 4 12C4 11.5111 4.17407 11.0926 4.52222 10.7444C4.87037 10.3963 5.28889 10.2222 5.77778 10.2222C6.26667 10.2222 6.68519 10.3963 7.03333 10.7444C7.38148 11.0926 7.55556 11.5111 7.55556 12C7.55556 12.4889 7.38148 12.9074 7.03333 13.2556C6.68519 13.6037 6.26667 13.7778 5.77778 13.7778ZM5.77778 8.44444C5.28889 8.44444 4.87037 8.27037 4.52222 7.92222C4.17407 7.57407 4 7.15555 4 6.66666C4 6.17777 4.17407 5.75926 4.52222 5.41111C4.87037 5.06296 5.28889 4.88889 5.77778 4.88889C6.26667 4.88889 6.68519 5.06296 7.03333 5.41111C7.38148 5.75926 7.55556 6.17777 7.55556 6.66666C7.55556 7.15555 7.38148 7.57407 7.03333 7.92222C6.68519 8.27037 6.26667 8.44444 5.77778 8.44444Z" fill="black"/>
</svg>
