<svg width="28" height="28" viewBox="0 0 28 28" fill="none" xmlns="http://www.w3.org/2000/svg">
  <g transform="scale(-1.1667, 1.1667) translate(-24, 0)">
    <path d="M9.68889 13.7778L12.8889 16.9778L11.6444 18.2222L8.44444 15.0222L5.24444 18.2222L4 16.9778L7.2 13.7778L4 10.5778L5.24444 9.33332L8.44444 12.5333L11.6444 9.33332L12.8889 10.5778L9.68889 13.7778Z" fill="black"/>
  </g>
  
  <path d="M6.389 10.8213L7.3384 9.80221C7.5126 9.62318 7.6681 9.44009 7.8156 9.26106C7.9576 9.08845 8.086 8.90509 8.1996 8.71261C8.306 8.53468 8.3931 8.34595 8.4596 8.14959C8.5227 7.95855 8.5547 7.7586 8.5544 7.5574C8.557 7.30729 8.5108 7.05907 8.4183 6.82668C8.3307 6.60824 8.1937 6.41304 8.0181 6.25637C7.8316 6.09322 7.6134 5.97023 7.3773 5.89507C6.8101 5.72614 6.2041 5.74003 5.6453 5.93476C5.3902 6.03116 5.1587 6.18116 4.9664 6.37465C4.7808 6.56005 4.6369 6.78294 4.5444 7.02841C4.4555 7.26528 4.4086 7.51586 4.4058 7.76885L4.4026 7.97952H5.7709L5.7766 7.77777C5.778 7.66518 5.794 7.55325 5.8244 7.44481C5.854 7.34963 5.9013 7.26087 5.9637 7.18314C6.0269 7.11171 6.1056 7.05572 6.1938 7.0195C6.3934 6.9404 6.6149 6.9358 6.8176 7.00654C6.8907 7.03861 6.9559 7.08616 7.0088 7.14591C7.0628 7.20967 7.1043 7.28305 7.1311 7.3622C7.1628 7.45842 7.1792 7.55901 7.1797 7.66032C7.1787 7.73995 7.1692 7.81926 7.1514 7.89687C7.1255 7.98956 7.0885 8.07878 7.0412 8.16258C6.9724 8.28366 6.8941 8.39906 6.807 8.50768C6.6876 8.66292 6.5602 8.81191 6.4254 8.95405L4.5087 11.0457V12H8.778V10.8213H6.389Z" fill="black"/>
</svg>