<svg width="21" height="20" viewBox="0 0 21 20" fill="none" xmlns="http://www.w3.org/2000/svg">
<path d="M17.85 13.65L16.35 12.1C17.0167 11.9167 17.5583 11.5625 17.975 11.0375C18.3917 10.5125 18.6 9.9 18.6 9.2C18.6 8.36667 18.3083 7.65833 17.725 7.075C17.1417 6.49167 16.4333 6.2 15.6 6.2H11.6V4.2H15.6C16.9833 4.2 18.1625 4.6875 19.1375 5.6625C20.1125 6.6375 20.6 7.81667 20.6 9.2C20.6 10.15 20.3542 11.025 19.8625 11.825C19.3708 12.625 18.7 13.2333 17.85 13.65ZM14.45 10.2L12.45 8.2H14.6V10.2H14.45ZM18.4 19.8L0 1.4L1.4 0L19.8 18.4L18.4 19.8ZM9.6 14.2H5.6C4.21667 14.2 3.0375 13.7125 2.0625 12.7375C1.0875 11.7625 0.6 10.5833 0.6 9.2C0.6 8.05 0.95 7.025 1.65 6.125C2.35 5.225 3.25 4.63333 4.35 4.35L6.2 6.2H5.6C4.76667 6.2 4.05833 6.49167 3.475 7.075C2.89167 7.65833 2.6 8.36667 2.6 9.2C2.6 10.0333 2.89167 10.7417 3.475 11.325C4.05833 11.9083 4.76667 12.2 5.6 12.2H9.6V14.2ZM6.6 10.2V8.2H8.225L10.2 10.2H6.6Z" fill="#666666"/>
</svg>
