<svg width="8" height="8" viewBox="0 0 15 17" fill="none" xmlns="http://www.w3.org/2000/svg">
<path d="M4.95833 11.05V6.8C4.04931 6.8 3.27112 6.46708 2.62378 5.80125C1.97645 5.13542 1.65278 4.335 1.65278 3.4C1.65278 2.465 1.97645 1.66458 2.62378 0.99875C3.27112 0.332917 4.04931 0 4.95833 0H11.5694V1.7H9.91667V11.05H8.26389V1.7H6.61111V11.05H4.95833ZM3.14028 14.45L4.4625 15.81L3.30556 17L0 13.6L3.30556 10.2L4.4625 11.39L3.14028 12.75H14.875V14.45H3.14028ZM4.95833 5.1V1.7C4.50382 1.7 4.11473 1.86646 3.79106 2.19937C3.46739 2.53229 3.30556 2.9325 3.30556 3.4C3.30556 3.8675 3.46739 4.26771 3.79106 4.60063C4.11473 4.93354 4.50382 5.1 4.95833 5.1Z" fill="#000000"/>
</svg>
