<svg width="10" height="10" viewBox="0 0 15 17" fill="none" xmlns="http://www.w3.org/2000/svg">
<path d="M5.33333 11.3455V6.98182C4.35556 6.98182 3.51852 6.64 2.82222 5.95636C2.12593 5.27273 1.77778 4.45091 1.77778 3.49091C1.77778 2.53091 2.12593 1.70909 2.82222 1.02545C3.51852 0.341818 4.35556 0 5.33333 0H12.4444V1.74545H10.6667V11.3455H8.88889V1.74545H7.11111V11.3455H5.33333ZM5.33333 5.23636V1.74545C4.84444 1.74545 4.42593 1.91636 4.07778 2.25818C3.72963 2.6 3.55556 3.01091 3.55556 3.49091C3.55556 3.97091 3.72963 4.38182 4.07778 4.72364C4.42593 5.06545 4.84444 5.23636 5.33333 5.23636ZM12.4444 17.4545L11.2 16.2327L12.6222 14.8364H0V13.0909H12.6222L11.2 11.6945L12.4444 10.4727L16 13.9636L12.4444 17.4545Z" fill="#000000"/>
</svg>
