<svg width="28" height="28" viewBox="0 0 28 28" fill="none" xmlns="http://www.w3.org/2000/svg">
  <g transform="scale(-1.1667, 1.1667) translate(-24, 0)">
    <path d="M9.68889 13.7778L12.8889 16.9778L11.6444 18.2222L8.44444 15.0222L5.24444 18.2222L4 16.9778L7.2 13.7778L4 10.5778L5.24444 9.33332L8.44444 12.5333L11.6444 9.33332L12.8889 10.5778L9.68889 13.7778Z" fill="black"/>
  </g>
  <g transform="scale(1.1667)">
    <path d="M6.389 17.8213L7.3384 16.8022C7.5126 16.6232 7.6681 16.4401 7.8156 16.2611C7.9576 16.0885 8.086 15.9051 8.1996 15.7126C8.306 15.5347 8.3931 15.346 8.4596 15.1496C8.5227 14.9586 8.5547 14.7586 8.5544 14.5574C8.557 14.3073 8.5108 14.0591 8.4183 13.8267C8.3307 13.6082 8.1937 13.413 8.0181 13.2564C7.8316 13.0932 7.6134 12.9702 7.3773 12.8951C6.8101 12.7261 6.2041 12.74 5.6453 12.9348C5.3902 13.0312 5.1587 13.1812 4.9664 13.3747C4.7808 13.5601 4.6369 13.7829 4.5444 14.0284C4.4555 14.2653 4.4086 14.5159 4.4058 14.7689L4.4026 14.9795H5.7709L5.7766 14.7778C5.778 14.6652 5.794 14.5533 5.8244 14.4448C5.854 14.3496 5.9013 14.2609 5.9637 14.1831C6.0269 14.1117 6.1056 14.0557 6.1938 14.0195C6.3934 13.9404 6.6149 13.9358 6.8176 14.0065C6.8907 14.0386 6.9559 14.0862 7.0088 14.1459C7.0628 14.2097 7.1043 14.2831 7.1311 14.3622C7.1628 14.4584 7.1792 14.559 7.1797 14.6603C7.1787 14.74 7.1692 14.8193 7.1514 14.8969C7.1255 14.9896 7.0885 15.0788 7.0412 15.1626C6.9724 15.2837 6.8941 15.3991 6.807 15.5077C6.6876 15.6629 6.5602 15.8119 6.4254 15.9541L4.5087 18.0457V19H8.778V17.8213H6.389Z" fill="black"/>
  </g>
</svg>
