<svg width="24" height="24" viewBox="0 0 24 24" fill="none" xmlns="http://www.w3.org/2000/svg">
<path d="M9.68889 13.7778L12.8889 16.9778L11.6444 18.2222L8.44444 15.0222L5.24444 18.2222L4 16.9778L7.2 13.7778L4 10.5778L5.24444 9.33332L8.44444 12.5333L11.6444 9.33332L12.8889 10.5778L9.68889 13.7778ZM17.611 10.8213L18.5604 9.80221C18.7346 9.62318 18.8901 9.44009 19.0376 9.26106C19.1796 9.08845 19.308 8.90509 19.4216 8.71261C19.528 8.53468 19.6151 8.34595 19.6816 8.14959C19.7447 7.95855 19.7767 7.7586 19.7764 7.5574C19.779 7.30729 19.7328 7.05907 19.6403 6.82668C19.5527 6.60824 19.4157 6.41304 19.2401 6.25637C19.0536 6.09322 18.8354 5.97023 18.5993 5.89507C18.0321 5.72614 17.4261 5.74003 16.8673 5.93476C16.6122 6.03116 16.3807 6.18116 16.1884 6.37465C16.0028 6.56005 15.8589 6.78294 15.7664 7.02841C15.6775 7.26528 15.6306 7.51586 15.6278 7.76885L15.6246 7.97952H16.9929L16.9986 7.77777C17 7.66518 17.016 7.55325 17.0464 7.44481C17.076 7.34963 17.1233 7.26087 17.1857 7.18314C17.2489 7.11171 17.3276 7.05572 17.4158 7.0195C17.6154 6.9404 17.8369 6.9358 18.0396 7.00654C18.1127 7.03861 18.1779 7.08616 18.2308 7.14591C18.2848 7.20967 18.3263 7.28305 18.3531 7.3622C18.3848 7.45842 18.4012 7.55901 18.4017 7.66032C18.4007 7.73995 18.3912 7.81926 18.3734 7.89687C18.3475 7.98956 18.3105 8.07878 18.2632 8.16258C18.1944 8.28366 18.1161 8.39906 18.029 8.50768C17.9096 8.66292 17.7822 8.81191 17.6474 8.95405L15.7307 11.0457V12H20V10.8213H17.611Z" fill="black"/>
</svg>
