<svg width="24" height="24" viewBox="0 0 24 24" fill="none" xmlns="http://www.w3.org/2000/svg">
<path d="M4.80005 20V18.8H6.80005V18.2H5.60005V17H6.80005V16.4H4.80005V15.2H7.20005C7.42672 15.2 7.61672 15.2767 7.77005 15.43C7.92338 15.5833 8.00005 15.7733 8.00005 16V16.8C8.00005 17.0267 7.92338 17.2167 7.77005 17.37C7.61672 17.5233 7.42672 17.6 7.20005 17.6C7.42672 17.6 7.61672 17.6767 7.77005 17.83C7.92338 17.9833 8.00005 18.1733 8.00005 18.4V19.2C8.00005 19.4267 7.92338 19.6167 7.77005 19.77C7.61672 19.9233 7.42672 20 7.20005 20H4.80005ZM4.80005 14.4V12.2C4.80005 11.9733 4.87672 11.7833 5.03005 11.63C5.18338 11.4767 5.37338 11.4 5.60005 11.4H6.80005V10.8H4.80005V9.6H7.20005C7.42672 9.6 7.61672 9.67667 7.77005 9.83C7.92338 9.98333 8.00005 10.1733 8.00005 10.4V11.8C8.00005 12.0267 7.92338 12.2167 7.77005 12.37C7.61672 12.5233 7.42672 12.6 7.20005 12.6H6.00005V13.2H8.00005V14.4H4.80005ZM6.00005 8.8V5.2H4.80005V4H7.20005V8.8H6.00005ZM9.60005 17.6V16H19.2V17.6H9.60005ZM9.60005 12.8V11.2H19.2V12.8H9.60005ZM9.60005 8V6.4H19.2V8H9.60005Z" fill="black"/>
</svg>
