<svg width="24" height="24" viewBox="0 0 24 24" fill="none" xmlns="http://www.w3.org/2000/svg">
<path d="M10.0235 10.1177L13.4118 13.5059L12.0941 14.8235L8.70588 11.4353L5.31765 14.8235L4 13.5059L7.38824 10.1177L4 6.72942L5.31765 5.41177L8.70588 8.80001L12.0941 5.41177L13.4118 6.72942L10.0235 10.1177ZM17.4704 17.3402L18.4757 16.2612C18.6602 16.0716 18.8248 15.8778 18.981 15.6882C19.1313 15.5054 19.2672 15.3113 19.3875 15.1075C19.5002 14.9191 19.5925 14.7193 19.6629 14.5114C19.7297 14.3091 19.7636 14.0974 19.7632 13.8843C19.766 13.6195 19.7171 13.3567 19.6191 13.1106C19.5264 12.8793 19.3814 12.6727 19.1954 12.5068C18.9979 12.334 18.7669 12.2038 18.5169 12.1242C17.9164 11.9453 17.2747 11.96 16.683 12.1662C16.4129 12.2683 16.1678 12.4271 15.9642 12.632C15.7677 12.8283 15.6153 13.0643 15.5173 13.3242C15.4232 13.575 15.3736 13.8403 15.3706 14.1082L15.3672 14.3313H16.816L16.822 14.1177C16.8235 13.9985 16.8405 13.88 16.8726 13.7652C16.904 13.6644 16.9541 13.5704 17.0202 13.4881C17.087 13.4125 17.1704 13.3532 17.2638 13.3148C17.4752 13.2311 17.7096 13.2262 17.9243 13.3011C18.0017 13.3351 18.0707 13.3854 18.1267 13.4487C18.1839 13.5162 18.2279 13.5939 18.2562 13.6777C18.2898 13.7796 18.3072 13.8861 18.3077 13.9933C18.3067 14.0777 18.2966 14.1616 18.2777 14.2438C18.2503 14.342 18.2111 14.4364 18.161 14.5252C18.0882 14.6534 18.0053 14.7755 17.9131 14.8905C17.7866 15.0549 17.6518 15.2127 17.5091 15.3632L15.4796 17.5779V18.5882H20V17.3402H17.4704Z" fill="black"/>
</svg>
